# File created by Blade
# Date/Time:  Tue Sep 23 19:22:32 2014
# Frame Rate: 120.000 fps
#------------------------------------------------------
:FULLY-SPECIFIED
:DEGREES
2138
root 7.966079 35.017617 4.481458 180.990318 -43.339504 -90.587152
Spine -66.205028 -11.222766 6.500880
Head -23.267918 34.335896 22.578550
LeftShoulder -33.077471 37.492866 25.577140
LeftArm 134.708985 -84.196912 -180.791717
LeftForeArm 41.647630 -0.000000 100.126178
LeftHand 23.299375 -0.000000 24.778333
LeftHandThumb1 -26.253704 0.000000 33.147579
RightShoulder -56.542088 -52.514353 12.408532
RightArm 21.220555 36.518284 91.525569
RightForeArm 103.869234 -0.000000 -21.158906
RightHand 5.759394 0.000000 36.532148
RightHandThumb1 -24.326973 -0.000000 -32.862282
LeftUpLeg -86.696890 44.160175 9.254829
LeftLeg 9.388537 -0.000000 -0.000000
LeftFoot -7.476442 1.178032 -1.302433
LeftToeBase 2.639437 -0.000000 -0.000000
RightUpLeg -4.489235 -11.368632 -21.684993
RightLeg 108.862262 -0.000000 -0.000000
RightFoot 44.068488 14.705703 -0.521071
RightToeBase 35.130204 -0.000000 -0.000000
2139
root 7.982632 35.011336 4.483163 181.630095 -43.437687 -91.086018
Spine -66.139714 -11.196993 6.484476
Head -22.837129 33.970512 22.950310
LeftShoulder -32.942874 37.442350 25.572480
LeftArm 131.053676 -84.444170 -177.213900
LeftForeArm 42.315781 -0.000000 99.687510
LeftHand 22.748287 0.000000 25.324786
LeftHandThumb1 -26.253704 0.000000 33.147579
RightShoulder -56.685445 -52.468295 12.474433
RightArm 21.414834 36.347370 91.668874
RightForeArm 104.047818 -0.000000 -21.317893
RightHand 5.890093 -0.000000 36.565377
RightHandThumb1 -24.326973 -0.000000 -32.862282
LeftUpLeg -86.771778 44.085019 9.004183
LeftLeg 9.294307 -0.000000 -0.000000
LeftFoot -7.432228 1.093679 -1.193362
LeftToeBase 2.518212 -0.000000 -0.000000
RightUpLeg -4.563244 -11.326873 -21.636209
RightLeg 108.995152 -0.000000 -0.000000
RightFoot 44.096364 14.796781 -0.438514
RightToeBase 35.168547 -0.000000 -0.000000
2140
root 8.000261 35.005855 4.482630 182.254550 -43.481365 -91.581594
Spine -66.026256 -11.096391 6.403902
Head -22.517774 33.568794 23.257525
LeftShoulder -32.803187 37.418305 25.536204
LeftArm 127.664068 -84.532297 -173.898382
LeftForeArm 43.323993 -0.000000 99.226888
LeftHand 22.518170 -0.000000 25.641142
LeftHandThumb1 -26.253704 0.000000 33.147579
RightShoulder -56.929729 -52.279786 12.514145
RightArm 21.468477 36.152045 91.653326
RightForeArm 104.152816 -0.000000 -21.476354
RightHand 5.922402 0.000000 36.705682
RightHandThumb1 -24.326973 -0.000000 -32.862282
LeftUpLeg -86.878978 44.059426 8.669113
LeftLeg 9.160514 -0.000000 -0.000000
LeftFoot -7.393655 1.023898 -1.056287
LeftToeBase 2.344618 -0.000000 -0.000000
RightUpLeg -4.646282 -11.247860 -21.590071
RightLeg 109.145208 -0.000000 -0.000000
RightFoot 44.182864 14.721277 -0.303179
RightToeBase 34.941271 -0.000000 -0.000000
2141
root 8.018982 35.001606 4.482629 182.768919 -43.527390 -92.042425
Spine -65.870490 -11.139332 6.510103
Head -21.982238 33.374851 23.850550
LeftShoulder -32.795568 37.492682 25.571881
LeftArm 123.412697 -84.622644 -169.912924
LeftForeArm 43.935548 -0.000000 98.910796
LeftHand 22.355054 -0.000000 25.853629
LeftHandThumb1 -26.253704 0.000000 33.147579
RightShoulder -56.711989 -52.277677 12.425555
RightArm 21.526219 36.060621 91.701097
RightForeArm 104.211563 0.000000 -21.540886
RightHand 5.833507 -0.000000 36.810134
RightHandThumb1 -24.326973 -0.000000 -32.862282
LeftUpLeg -86.784186 43.991358 8.528593
LeftLeg 8.952685 -0.000000 -0.000000
LeftFoot -7.297310 1.007317 -0.813011
LeftToeBase 2.109285 -0.000000 -0.000000
RightUpLeg -4.635081 -11.097591 -21.535889
RightLeg 109.299094 -0.000000 -0.000000
RightFoot 44.133297 14.918979 -0.300396
RightToeBase 34.881964 -0.000000 -0.000000
2142
root 8.039236 34.999122 4.482271 183.336612 -43.557862 -92.521123
Spine -65.763029 -11.186471 6.597137
Head -21.462791 33.231627 24.476318
LeftShoulder -32.768336 37.631847 25.622786
LeftArm 118.767671 -84.681446 -165.519768
LeftForeArm 44.321461 0.000000 98.557887
LeftHand 22.282222 0.000000 26.251219
LeftHandThumb1 -26.253704 0.000000 33.147579
RightShoulder -56.352942 -52.426117 12.312709
RightArm 21.515345 36.284274 91.938882
RightForeArm 104.034969 -0.000000 -21.354192
RightHand 5.842100 -0.000000 37.024959
RightHandThumb1 -24.326973 -0.000000 -32.862282
LeftUpLeg -86.744266 43.934350 8.349174
LeftLeg 8.757214 -0.000000 -0.000000
LeftFoot -7.199305 1.038730 -0.556355
LeftToeBase 1.874963 -0.000000 -0.000000
RightUpLeg -4.655486 -10.989570 -21.488628
RightLeg 109.438936 -0.000000 -0.000000
RightFoot 44.116400 14.913912 -0.351096
RightToeBase 35.012177 -0.000000 -0.000000
2143
root 8.059740 34.999606 4.485659 183.983708 -43.498360 -93.069641
Spine -65.625896 -11.146637 6.577693
Head -21.020331 32.985244 25.109362
LeftShoulder -32.712160 37.715878 25.710440
LeftArm 114.519287 -84.567562 -161.551238
LeftForeArm 45.234289 0.000000 98.287240
LeftHand 21.984982 -0.000000 26.485979
LeftHandThumb1 -26.253704 0.000000 33.147579
RightShoulder -56.210894 -52.442894 12.395088
RightArm 21.594630 36.201939 91.997167
RightForeArm 104.099432 0.000000 -21.333827
RightHand 5.851194 -0.000000 36.999083
RightHandThumb1 -24.326973 -0.000000 -32.862282
LeftUpLeg -86.640430 43.950738 8.206023
LeftLeg 8.553634 -0.000000 -0.000000
LeftFoot -7.090426 1.202334 -0.279755
LeftToeBase 1.761137 -0.000000 -0.000000
RightUpLeg -4.756800 -10.816754 -21.498904
RightLeg 109.596485 -0.000000 -0.000000
RightFoot 44.108798 14.857790 -0.451473
RightToeBase 35.074210 -0.000000 -0.000000
